<?xml version="1.0" standalone="no"?><!DOCTYPE svg PUBLIC "-//W3C//DTD SVG 1.1//EN" "http://www.w3.org/Graphics/SVG/1.1/DTD/svg11.dtd"><svg t="1547088985558" class="icon" style="" viewBox="0 0 1024 1024" version="1.1" xmlns="http://www.w3.org/2000/svg" p-id="2794" xmlns:xlink="http://www.w3.org/1999/xlink" width="64" height="64"><defs><style type="text/css"></style></defs><path d="M926.254545 381.672727H93.090909c-18.618182 0-37.236364 13.963636-37.236364 37.236364v204.8c0 23.272727 13.963636 37.236364 37.236364 37.236364h833.163636c18.618182 0 37.236364-18.618182 37.236364-37.236364V418.909091c0-23.272727-18.618182-37.236364-37.236364-37.236364zM93.090909 628.363636s0-4.654545 0 0V418.909091v-4.654546h833.163636v214.109091H93.090909z" fill="#8A8A8A" p-id="2795"></path><path d="M814.545455 470.109091h-237.381819c-23.272727 0-41.890909 23.272727-41.890909 51.2 0 27.927273 18.618182 51.2 41.890909 51.2h237.381819c23.272727 0 41.890909-23.272727 41.890909-51.2 0-27.927273-18.618182-51.2-41.890909-51.2zM926.254545 702.836364H93.090909c-18.618182 0-37.236364 18.618182-37.236364 37.236363v204.8c0 23.272727 13.963636 37.236364 37.236364 37.236364h833.163636c18.618182 0 37.236364-18.618182 37.236364-37.236364v-204.8c0-18.618182-18.618182-37.236364-37.236364-37.236363zM93.090909 949.527273v-209.454546-4.654545h833.163636v214.109091H93.090909z" fill="#8A8A8A" p-id="2796"></path><path d="M814.545455 791.272727h-512c-23.272727 0-41.890909 23.272727-41.89091 51.2 0 27.927273 18.618182 51.2 41.89091 51.2h507.345454c23.272727 0 41.890909-23.272727 41.890909-51.2 4.654545-27.927273-13.963636-51.2-37.236363-51.2zM926.254545 55.854545H93.090909c-18.618182 0-37.236364 18.618182-37.236364 37.236364v204.8c0 23.272727 13.963636 37.236364 37.236364 37.236364h833.163636c18.618182 0 37.236364-18.618182 37.236364-37.236364V93.090909c0-18.618182-18.618182-37.236364-37.236364-37.236364zM93.090909 302.545455V93.090909h833.163636v214.109091L93.090909 302.545455z" fill="#8A8A8A" p-id="2797"></path><path d="M814.545455 148.945455H465.454545c-23.272727 0-41.890909 23.272727-41.890909 51.2 0 27.927273 18.618182 51.2 41.890909 51.2h344.436364c23.272727 0 41.890909-23.272727 41.890909-51.2 4.654545-27.927273-13.963636-51.2-37.236363-51.2z" fill="#8A8A8A" p-id="2798"></path></svg>