<?xml version="1.0" standalone="no"?><!DOCTYPE svg PUBLIC "-//W3C//DTD SVG 1.1//EN" "http://www.w3.org/Graphics/SVG/1.1/DTD/svg11.dtd"><svg t="1547088968796" class="icon" style="" viewBox="0 0 1024 1024" version="1.1" xmlns="http://www.w3.org/2000/svg" p-id="2652" xmlns:xlink="http://www.w3.org/1999/xlink" width="64" height="64"><defs><style type="text/css"></style></defs><path d="M458.214141 934.787879c14.610101 14.610101 32.064646 21.721212 53.139394 21.721212s38.012121-6.723232 51.846465-20.686869l0.129293-0.129293c9.179798-9.050505 15.127273-19.393939 18.230303-31.288889H439.466667c3.232323 11.119192 9.438384 21.074747 18.747474 30.383839zM780.412121 699.216162V457.179798c0.129293-70.464646-17.971717-132.654545-53.785858-184.630303-35.29697-51.2-84.945455-85.074747-147.652526-100.331313l-3.878788-0.905051-7.886868-1.939394V123.733333c0-15.515152-5.042424-28.056566-15.773738-39.434343-10.343434-10.731313-23.789899-16.290909-39.822222-16.290909h-0.517172c-16.290909 0-28.832323 5.171717-39.30505 16.290909C460.929293 95.676768 455.886869 108.088889 455.886869 123.733333V169.373737l-7.886869 1.939394-4.008081 0.905051c-62.577778 15.127273-112.226263 49.00202-147.652525 100.331313C260.654545 324.525253 242.553535 386.585859 242.553535 457.179798v242.036364l-2.973737 2.973737L146.876768 794.763636v24.824243h729.212121v-24.69495l-92.573737-92.573737-3.103031-3.10303z m168.080808-370.29495c-8.662626-32.840404-20.816162-64.387879-36.331313-93.866667-15.515152-29.478788-34.779798-57.535354-57.147475-83.523232-18.876768-21.850505-40.339394-42.79596-64.258585-62.319192l-36.848485 36.848485c91.280808 73.567677 143.256566 169.632323 154.634343 285.99596h54.30303c-2.585859-28.961616-7.369697-56.759596-14.351515-83.135354zM232.339394 88.953535C208.420202 108.606061 186.69899 129.551515 167.822222 151.531313 145.454545 177.519192 126.189899 205.575758 110.674747 235.054545c-15.515152 29.349495-27.668687 61.026263-36.331313 93.866667-6.981818 26.375758-11.765657 54.30303-14.222222 83.135354h54.30303c11.377778-117.527273 63.870707-213.591919 156.185859-285.99596L232.339394 88.953535z m0 0" p-id="2653"></path></svg>