<?xml version="1.0" standalone="no"?><!DOCTYPE svg PUBLIC "-//W3C//DTD SVG 1.1//EN" "http://www.w3.org/Graphics/SVG/1.1/DTD/svg11.dtd"><svg t="1547098980312" class="icon" style="" viewBox="0 0 1024 1024" version="1.1" xmlns="http://www.w3.org/2000/svg" p-id="1370" xmlns:xlink="http://www.w3.org/1999/xlink" width="64" height="64"><defs><style type="text/css"></style></defs><path d="M682.75637817 318.73428345v-46.4293213c0-4.25500489-3.48458862-7.73547363-7.74041747-7.73547363H303.61187744c-4.25500489 0-7.73547363 3.48046875-7.73547363 7.73547363v46.42932128c0 4.25418091 3.48046875 7.73629761 7.73547363 7.73629762h371.40490723c4.25500489 0 7.73959351-3.4821167 7.73959351-7.73629762zM303.61187744 403.84674073c-4.25500489 0-7.73547363 3.48046875-7.73547363 7.74041747v46.42355347c0 4.25500489 3.48046875 7.73547363 7.73547363 7.73547364h177.96368409c4.25582886 0 7.74124146-3.48046875 7.74124145-7.73547364v-46.42355347c0-4.25994873-3.48458862-7.74041748-7.74124145-7.74041747H303.61187744z m363.66860962 112.1956787c-115.38858032 0-208.91629028 93.52770996-208.91629028 208.91629029 0 115.38363648 93.52770996 208.91629028 208.91629028 208.91629028C782.66412354 933.875 876.19677734 840.34234619 876.19677734 724.95870972c0-115.38858032-93.53265381-208.91629028-208.91629028-208.91629029zM771.25454711 828.93359375c-27.75888062 27.75888062-64.70425415 43.03701782-103.97406005 43.03701782s-76.21435547-15.27813721-103.97488403-43.03701782c-27.75888062-27.75970459-43.04196167-64.70507813-43.04196168-103.97488403s15.28308106-76.21435547 43.04196168-103.97406006c27.75970459-27.75970459 64.70507813-43.04196167 103.97488403-43.04196167s76.21435547 15.28225708 103.97406005 43.04196167c27.75970459 27.75888062 43.0378418 64.70425415 43.0378418 103.97406006s-15.27813721 76.21435547-43.0378418 103.97488403z m0 0" p-id="1371"></path><path d="M636.32870484 802.33486938c0 17.09088135 13.85595703 30.94766235 30.95178222 30.94766236 17.09088135 0 30.94766235-13.85595703 30.94766236-30.94766236 0-17.09582521-13.85595703-30.95178223-30.94766236-30.95178222-17.09582521 0-30.95178223 13.85595703-30.95178222 30.95178222z m0 0M647.93685913 740.43460083h38.68807982c4.25500489 0 7.73547363-3.48458862 7.73547365-7.74041748V624.37118531c0-4.25994873-3.48046875-7.74124146-7.73547365-7.74124146h-38.68807982c-4.25500489 0-7.74124146 3.48129273-7.74124146 7.74124146v108.32382201c0 4.25500489 3.48623657 7.73959351 7.74124146 7.73959351z m0 0" p-id="1372"></path><path d="M442.88830566 841.02377321H218.50106812V160.11422729h541.6322937v332.71600342c0 4.25500489 3.48046875 7.73547363 7.73547363 7.73547364h54.16397095c4.25500489 0 7.73629761-3.48046875 7.73629761-7.73547364V121.42697143c0-17.12054443-13.8279419-30.9526062-30.94848634-30.9526062H179.81298828c-17.12054443 0-30.9526062 13.83206177-30.9526062 30.9526062v758.28405763c0 17.11972046 13.83206177 30.94848633 30.9526062 30.94848632h263.07449341c4.25582886 0 7.74041748-3.48129273 7.74041748-7.73629761V848.75842286c0.00082398-4.25500489-3.48458862-7.73464966-7.7395935-7.73464967z m0-2e-8" p-id="1373"></path></svg>