<?xml version="1.0" standalone="no"?><!DOCTYPE svg PUBLIC "-//W3C//DTD SVG 1.1//EN" "http://www.w3.org/Graphics/SVG/1.1/DTD/svg11.dtd"><svg t="1547099088157" class="icon" style="" viewBox="0 0 1024 1024" version="1.1" xmlns="http://www.w3.org/2000/svg" p-id="2197" xmlns:xlink="http://www.w3.org/1999/xlink" width="64" height="64"><defs><style type="text/css"></style></defs><path d="M349.658537 649.066146H685.830244c12.188098 0 22.777756-12.188098 22.777756-26.673951-1.098927-15.58478-11.688585-26.673951-23.876683-26.673951H349.658537c-12.188098 0-22.777756 12.188098-22.777757 26.673951s10.489756 26.673951 22.777757 26.673951z m335.07278-208.396487H349.658537c-12.188098 0-22.777756 12.188098-22.777757 26.673951s10.589659 26.673951 22.777757 26.673951H685.830244c12.188098 0 22.777756-12.188098 22.777756-26.673951-1.098927-15.58478-11.588683-26.673951-23.876683-26.673951z m34.466342-298.508488h45.056c26.673951 0 45.056 21.079415 45.056 51.649561v398.610731l45.056 8.891317V195.009561c0-59.441951-31.669073-104.497951-89.512586-104.497951H719.797073c-12.188098 0-26.673951 8.891317-26.673951 23.37717-0.599415 13.886439 13.886439 28.27239 26.074537 28.272391z m0 0" p-id="2198"></path><path d="M708.707902 841.977756H281.82478c-26.673951 0-56.145171-21.079415-56.14517-51.649561v-596.417561c0-31.169561 18.382049-51.649561 45.056-51.649561h56.14517c12.188098 0 17.18322-14.485854 17.18322-28.871805 0-14.485854-4.995122-23.377171-17.18322-23.37717h-56.14517c-62.838634 0-89.512585 45.056-89.512586 104.497951V784.234146c0 63.937561 33.367415 108.893659 94.507708 108.893659h433.476683v-51.150049h-0.499513zM440.170146 155.548098h156.147513c18.382049 0 33.367415-21.079415 33.367414-45.056 0-23.876683-14.985366-45.056-34.466341-45.056H440.170146c-18.881561 0-34.466341 21.079415-34.466341 45.056 0.099902 23.876683 15.085268 45.056 34.466341 45.056z m0 0" p-id="2199"></path><path d="M326.88078 323.98361c0 14.485854 10.589659 26.673951 22.777757 26.673951H685.830244c12.188098 0 22.777756-12.188098 22.777756-26.673951s-10.589659-26.673951-22.777756-26.673951H349.658537c-12.288 0.499512-22.777756 12.68761-22.777757 26.673951z m0 0" p-id="2200"></path><path d="M793.425171 573.739707c-124.378537 0-225.180098 100.801561-225.180098 225.180098S668.946732 1024 793.425171 1024c124.378537 0 225.180098-100.801561 225.180097-225.180098-0.099902-124.278634-100.901463-225.080195-225.180097-225.080195z m90.911219 264.541659h-106.89561c-0.79922 0-1.298732-0.699317-2.097951-0.79922-0.299707 0-0.499512 0.39961-0.799219 0.39961-2.597463-0.099902-4.595512-2.097951-6.893269-3.196878-1.998049-1.098927-4.195902-1.298732-5.694439-2.697366-1.198829-1.198829-1.298732-3.096976-2.197853-4.595512-1.598439-2.697366-3.796293-5.095024-3.796293-8.291902 0-0.39961 0.499512-0.599415 0.499512-0.999025s-0.499512-0.699317-0.499512-1.198829V670.545171c0-11.588683 8.391805-20.979512 18.681756-20.979512 10.389854 0 18.681756 9.390829 18.681756 20.979512v129.373658h91.011122c11.88839 0 21.578927 8.59161 21.578927 19.181269-0.099902 10.589659-9.690537 19.181268-21.578927 19.181268z m0 0" p-id="2201"></path></svg>